<svg xmlns="http://www.w3.org/2000/svg" viewBox="0 0 720 500" font-family="system-ui,sans-serif" font-size="13">
<rect width="720" height="500" fill="#0f172a"/>
<text x="360" y="32" fill="#fff" font-size="18" font-weight="600" text-anchor="middle">Weight-stationary systolic array (16×16 PEs; 4×4 shown)</text>
<defs><marker id="a" markerWidth="8" markerHeight="8" refX="6" refY="4" orient="auto"><path d="M0,0 L8,4 L0,8z" fill="#94a3b8"/></marker></defs><g transform="translate(70,0)">
<rect x="170" y="110" width="56" height="48" rx="6" fill="#1e3a5f" stroke="#60a5fa"/>
<text x="198" y="132" fill="#fff" text-anchor="middle">PE</text><text x="198" y="148" fill="#93c5fd" text-anchor="middle" font-size="11">W[0][0]</text>
<line x1="226" y1="134" x2="250" y2="134" stroke="#94a3b8" marker-end="url(#a)"/>
<line x1="198" y1="158" x2="198" y2="180" stroke="#fbbf24" marker-end="url(#a)"/>
<rect x="250" y="110" width="56" height="48" rx="6" fill="#1e3a5f" stroke="#60a5fa"/>
<text x="278" y="132" fill="#fff" text-anchor="middle">PE</text><text x="278" y="148" fill="#93c5fd" text-anchor="middle" font-size="11">W[0][1]</text>
<line x1="306" y1="134" x2="331" y2="134" stroke="#94a3b8" marker-end="url(#a)"/>
<line x1="278" y1="158" x2="278" y2="180" stroke="#fbbf24" marker-end="url(#a)"/>
<rect x="331" y="110" width="56" height="48" rx="6" fill="#1e3a5f" stroke="#60a5fa"/>
<text x="359" y="132" fill="#fff" text-anchor="middle">PE</text><text x="359" y="148" fill="#93c5fd" text-anchor="middle" font-size="11">W[0][2]</text>
<line x1="387" y1="134" x2="412" y2="134" stroke="#94a3b8" marker-end="url(#a)"/>
<line x1="359" y1="158" x2="359" y2="180" stroke="#fbbf24" marker-end="url(#a)"/>
<rect x="412" y="110" width="56" height="48" rx="6" fill="#1e3a5f" stroke="#60a5fa"/>
<text x="440" y="132" fill="#fff" text-anchor="middle">PE</text><text x="440" y="148" fill="#93c5fd" text-anchor="middle" font-size="11">W[0][3]</text>
<line x1="440" y1="158" x2="440" y2="180" stroke="#fbbf24" marker-end="url(#a)"/>
<rect x="170" y="180" width="56" height="48" rx="6" fill="#1e3a5f" stroke="#60a5fa"/>
<text x="198" y="202" fill="#fff" text-anchor="middle">PE</text><text x="198" y="218" fill="#93c5fd" text-anchor="middle" font-size="11">W[1][0]</text>
<line x1="226" y1="204" x2="250" y2="204" stroke="#94a3b8" marker-end="url(#a)"/>
<line x1="198" y1="228" x2="198" y2="250" stroke="#fbbf24" marker-end="url(#a)"/>
<rect x="250" y="180" width="56" height="48" rx="6" fill="#1e3a5f" stroke="#60a5fa"/>
<text x="278" y="202" fill="#fff" text-anchor="middle">PE</text><text x="278" y="218" fill="#93c5fd" text-anchor="middle" font-size="11">W[1][1]</text>
<line x1="306" y1="204" x2="331" y2="204" stroke="#94a3b8" marker-end="url(#a)"/>
<line x1="278" y1="228" x2="278" y2="250" stroke="#fbbf24" marker-end="url(#a)"/>
<rect x="331" y="180" width="56" height="48" rx="6" fill="#1e3a5f" stroke="#60a5fa"/>
<text x="359" y="202" fill="#fff" text-anchor="middle">PE</text><text x="359" y="218" fill="#93c5fd" text-anchor="middle" font-size="11">W[1][2]</text>
<line x1="387" y1="204" x2="412" y2="204" stroke="#94a3b8" marker-end="url(#a)"/>
<line x1="359" y1="228" x2="359" y2="250" stroke="#fbbf24" marker-end="url(#a)"/>
<rect x="412" y="180" width="56" height="48" rx="6" fill="#1e3a5f" stroke="#60a5fa"/>
<text x="440" y="202" fill="#fff" text-anchor="middle">PE</text><text x="440" y="218" fill="#93c5fd" text-anchor="middle" font-size="11">W[1][3]</text>
<line x1="440" y1="228" x2="440" y2="250" stroke="#fbbf24" marker-end="url(#a)"/>
<rect x="170" y="250" width="56" height="48" rx="6" fill="#1e3a5f" stroke="#60a5fa"/>
<text x="198" y="272" fill="#fff" text-anchor="middle">PE</text><text x="198" y="288" fill="#93c5fd" text-anchor="middle" font-size="11">W[2][0]</text>
<line x1="226" y1="274" x2="250" y2="274" stroke="#94a3b8" marker-end="url(#a)"/>
<line x1="198" y1="298" x2="198" y2="320" stroke="#fbbf24" marker-end="url(#a)"/>
<rect x="250" y="250" width="56" height="48" rx="6" fill="#1e3a5f" stroke="#60a5fa"/>
<text x="278" y="272" fill="#fff" text-anchor="middle">PE</text><text x="278" y="288" fill="#93c5fd" text-anchor="middle" font-size="11">W[2][1]</text>
<line x1="306" y1="274" x2="331" y2="274" stroke="#94a3b8" marker-end="url(#a)"/>
<line x1="278" y1="298" x2="278" y2="320" stroke="#fbbf24" marker-end="url(#a)"/>
<rect x="331" y="250" width="56" height="48" rx="6" fill="#1e3a5f" stroke="#60a5fa"/>
<text x="359" y="272" fill="#fff" text-anchor="middle">PE</text><text x="359" y="288" fill="#93c5fd" text-anchor="middle" font-size="11">W[2][2]</text>
<line x1="387" y1="274" x2="412" y2="274" stroke="#94a3b8" marker-end="url(#a)"/>
<line x1="359" y1="298" x2="359" y2="320" stroke="#fbbf24" marker-end="url(#a)"/>
<rect x="412" y="250" width="56" height="48" rx="6" fill="#1e3a5f" stroke="#60a5fa"/>
<text x="440" y="272" fill="#fff" text-anchor="middle">PE</text><text x="440" y="288" fill="#93c5fd" text-anchor="middle" font-size="11">W[2][3]</text>
<line x1="440" y1="298" x2="440" y2="320" stroke="#fbbf24" marker-end="url(#a)"/>
<rect x="170" y="320" width="56" height="48" rx="6" fill="#1e3a5f" stroke="#60a5fa"/>
<text x="198" y="342" fill="#fff" text-anchor="middle">PE</text><text x="198" y="358" fill="#93c5fd" text-anchor="middle" font-size="11">W[3][0]</text>
<line x1="226" y1="344" x2="250" y2="344" stroke="#94a3b8" marker-end="url(#a)"/>
<rect x="250" y="320" width="56" height="48" rx="6" fill="#1e3a5f" stroke="#60a5fa"/>
<text x="278" y="342" fill="#fff" text-anchor="middle">PE</text><text x="278" y="358" fill="#93c5fd" text-anchor="middle" font-size="11">W[3][1]</text>
<line x1="306" y1="344" x2="331" y2="344" stroke="#94a3b8" marker-end="url(#a)"/>
<rect x="331" y="320" width="56" height="48" rx="6" fill="#1e3a5f" stroke="#60a5fa"/>
<text x="359" y="342" fill="#fff" text-anchor="middle">PE</text><text x="359" y="358" fill="#93c5fd" text-anchor="middle" font-size="11">W[3][2]</text>
<line x1="387" y1="344" x2="412" y2="344" stroke="#94a3b8" marker-end="url(#a)"/>
<rect x="412" y="320" width="56" height="48" rx="6" fill="#1e3a5f" stroke="#60a5fa"/>
<text x="440" y="342" fill="#fff" text-anchor="middle">PE</text><text x="440" y="358" fill="#93c5fd" text-anchor="middle" font-size="11">W[3][3]</text>
<line x1="95" y1="134" x2="166" y2="134" stroke="#94a3b8" marker-end="url(#a)"/>
<line x1="95" y1="204" x2="166" y2="204" stroke="#94a3b8" marker-end="url(#a)"/>
<line x1="95" y1="274" x2="166" y2="274" stroke="#94a3b8" marker-end="url(#a)"/>
<line x1="95" y1="344" x2="166" y2="344" stroke="#94a3b8" marker-end="url(#a)"/>
<rect x="20" y="105" width="75" height="270" rx="6" fill="#14532d" stroke="#4ade80"/>
<text x="57" y="225" fill="#fff" text-anchor="middle">Input</text><text x="57" y="243" fill="#fff" text-anchor="middle">double</text><text x="57" y="261" fill="#fff" text-anchor="middle">buffer</text><text x="57" y="285" fill="#bbf7d0" text-anchor="middle" font-size="11">(skewed)</text>
<line x1="198" y1="368" x2="198" y2="398" stroke="#fbbf24" marker-end="url(#a)"/>
<rect x="170" y="400" width="298" height="34" rx="6" fill="#7c2d12" stroke="#fb923c"/><text x="319" y="422" fill="#fff" text-anchor="middle">Partial-sum accumulation → output buffer</text>
<rect x="170" y="52" width="298" height="34" rx="6" fill="#4c1d95" stroke="#a78bfa"/><text x="319" y="74" fill="#fff" text-anchor="middle">Weight double buffer → loaded into PE registers</text>
<line x1="198" y1="86" x2="198" y2="107" stroke="#a78bfa" marker-end="url(#a)"/>
</g><text x="360" y="478" fill="#94a3b8" text-anchor="middle" font-size="12">Gray: inputs flow right · Gold: partial sums flow down · Each PE computes psum_out = psum_in + input × weight</text>
</svg>