<svg xmlns="http://www.w3.org/2000/svg" viewBox="0 0 720 405" font-family="system-ui,sans-serif"><rect width="720" height="405" fill="#0f172a"/>
<rect x="70" y="130" width="28" height="28" rx="3" fill="#3b82f6"/><rect x="70" y="162" width="28" height="28" rx="3" fill="#3b82f6"/><rect x="70" y="194" width="28" height="28" rx="3" fill="#3b82f6"/><rect x="70" y="226" width="28" height="28" rx="3" fill="#3b82f6"/><rect x="102" y="130" width="28" height="28" rx="3" fill="#3b82f6"/><rect x="102" y="162" width="28" height="28" rx="3" fill="#3b82f6"/><rect x="102" y="194" width="28" height="28" rx="3" fill="#3b82f6"/><rect x="102" y="226" width="28" height="28" rx="3" fill="#3b82f6"/><rect x="134" y="130" width="28" height="28" rx="3" fill="#3b82f6"/><rect x="134" y="162" width="28" height="28" rx="3" fill="#3b82f6"/><rect x="134" y="194" width="28" height="28" rx="3" fill="#3b82f6"/><rect x="134" y="226" width="28" height="28" rx="3" fill="#3b82f6"/><rect x="166" y="130" width="28" height="28" rx="3" fill="#3b82f6"/><rect x="166" y="162" width="28" height="28" rx="3" fill="#3b82f6"/><rect x="166" y="194" width="28" height="28" rx="3" fill="#3b82f6"/><rect x="166" y="226" width="28" height="28" rx="3" fill="#3b82f6"/><rect x="290" y="130" width="28" height="28" rx="3" fill="#a78bfa"/><rect x="290" y="162" width="28" height="28" rx="3" fill="#a78bfa"/><rect x="290" y="194" width="28" height="28" rx="3" fill="#a78bfa"/><rect x="290" y="226" width="28" height="28" rx="3" fill="#a78bfa"/><rect x="322" y="130" width="28" height="28" rx="3" fill="#a78bfa"/><rect x="322" y="162" width="28" height="28" rx="3" fill="#a78bfa"/><rect x="322" y="194" width="28" height="28" rx="3" fill="#a78bfa"/><rect x="322" y="226" width="28" height="28" rx="3" fill="#a78bfa"/><rect x="354" y="130" width="28" height="28" rx="3" fill="#a78bfa"/><rect x="354" y="162" width="28" height="28" rx="3" fill="#a78bfa"/><rect x="354" y="194" width="28" height="28" rx="3" fill="#a78bfa"/><rect x="354" y="226" width="28" height="28" rx="3" fill="#a78bfa"/><rect x="386" y="130" width="28" height="28" rx="3" fill="#a78bfa"/><rect x="386" y="162" width="28" height="28" rx="3" fill="#a78bfa"/><rect x="386" y="194" width="28" height="28" rx="3" fill="#a78bfa"/><rect x="386" y="226" width="28" height="28" rx="3" fill="#a78bfa"/><rect x="510" y="130" width="28" height="28" rx="3" fill="#fbbf24"/><rect x="510" y="162" width="28" height="28" rx="3" fill="#fbbf24"/><rect x="510" y="194" width="28" height="28" rx="3" fill="#fbbf24"/><rect x="510" y="226" width="28" height="28" rx="3" fill="#fbbf24"/><rect x="542" y="130" width="28" height="28" rx="3" fill="#fbbf24"/><rect x="542" y="162" width="28" height="28" rx="3" fill="#fbbf24"/><rect x="542" y="194" width="28" height="28" rx="3" fill="#fbbf24"/><rect x="542" y="226" width="28" height="28" rx="3" fill="#fbbf24"/><rect x="574" y="130" width="28" height="28" rx="3" fill="#fbbf24"/><rect x="574" y="162" width="28" height="28" rx="3" fill="#fbbf24"/><rect x="574" y="194" width="28" height="28" rx="3" fill="#fbbf24"/><rect x="574" y="226" width="28" height="28" rx="3" fill="#fbbf24"/><rect x="606" y="130" width="28" height="28" rx="3" fill="#fbbf24"/><rect x="606" y="162" width="28" height="28" rx="3" fill="#fbbf24"/><rect x="606" y="194" width="28" height="28" rx="3" fill="#fbbf24"/><rect x="606" y="226" width="28" height="28" rx="3" fill="#fbbf24"/>
<text x="240" y="210" fill="#fff" font-size="40" text-anchor="middle">×</text><text x="460" y="210" fill="#fff" font-size="40" text-anchor="middle">=</text>
<text x="134" y="285" fill="#93c5fd" font-size="22" text-anchor="middle">A</text><text x="354" y="285" fill="#c4b5fd" font-size="22" text-anchor="middle">B</text><text x="574" y="285" fill="#fcd34d" font-size="22" text-anchor="middle">C</text>
<text x="360" y="70" fill="#fff" font-size="26" font-weight="600" text-anchor="middle">GEMM: C = A × B</text><text x="360" y="360" fill="#94a3b8" font-size="18" text-anchor="middle">64 SIMD processing elements</text></svg>